<svg width="16" height="16" viewBox="0 0 16 16" fill="none" xmlns="http://www.w3.org/2000/svg">
<g clip-path="url(#clip0_7_2453)">
<path d="M9.01966 5.56792C8.63804 5.83998 8.17104 6.00001 7.66666 6.00001C6.378 6.00001 5.33333 4.95534 5.33333 3.66668C5.33333 2.37801 6.378 1.33334 7.66666 1.33334C8.50199 1.33334 9.23479 1.77229 9.647 2.4321M3.99999 13.3914H5.74019C5.96708 13.3914 6.19258 13.4184 6.41254 13.4724L8.25126 13.9193C8.65022 14.0165 9.06585 14.0259 9.46898 13.9476L11.502 13.5521C12.039 13.4475 12.533 13.1903 12.9202 12.8137L14.3586 11.4145C14.7694 11.0156 14.7694 10.3683 14.3586 9.96872C13.9888 9.60897 13.4031 9.56847 12.9848 9.87355L11.3084 11.0966C11.0683 11.2721 10.7762 11.3666 10.4758 11.3666H8.85699L9.88737 11.3665C10.4681 11.3665 10.9386 10.9089 10.9386 10.344V10.1394C10.9386 9.67034 10.6104 9.26132 10.1427 9.14792L8.55239 8.76117C8.29358 8.6984 8.02853 8.66668 7.76209 8.66668C7.11888 8.66668 5.95459 9.19922 5.95459 9.19922L3.99999 10.0166M13.3333 4.33334C13.3333 5.62201 12.2887 6.66668 11 6.66668C9.71133 6.66668 8.66666 5.62201 8.66666 4.33334C8.66666 3.04468 9.71133 2.00001 11 2.00001C12.2887 2.00001 13.3333 3.04468 13.3333 4.33334ZM1.33333 9.73334L1.33333 13.6C1.33333 13.9734 1.33333 14.1601 1.40599 14.3027C1.46991 14.4281 1.57189 14.5301 1.69733 14.594C1.83994 14.6667 2.02663 14.6667 2.39999 14.6667H2.93333C3.3067 14.6667 3.49338 14.6667 3.63599 14.594C3.76143 14.5301 3.86342 14.4281 3.92733 14.3027C3.99999 14.1601 3.99999 13.9734 3.99999 13.6V9.73334C3.99999 9.35998 3.99999 9.17329 3.92733 9.03068C3.86342 8.90524 3.76143 8.80326 3.63599 8.73934C3.49338 8.66668 3.3067 8.66668 2.93333 8.66668L2.4 8.66668C2.02663 8.66668 1.83994 8.66668 1.69733 8.73934C1.57189 8.80325 1.46991 8.90524 1.40599 9.03068C1.33333 9.17329 1.33333 9.35998 1.33333 9.73334Z" stroke="#9E77ED" stroke-width="1.33333" stroke-linecap="round" stroke-linejoin="round"/>
</g>
<defs>
<clipPath id="clip0_7_2453">
<rect width="16" height="16" fill="white"/>
</clipPath>
</defs>
</svg>
