<svg width="16" height="16" viewBox="0 0 16 16" fill="none" xmlns="http://www.w3.org/2000/svg">
<path d="M11.9186 13.3934C10.7796 14.221 9.40784 14.6667 7.99998 14.6667C6.59212 14.6667 5.2204 14.221 4.08142 13.3934M10.9225 2.00803C12.1878 2.6252 13.2253 3.62711 13.8863 4.87018C14.5473 6.11325 14.7977 7.53365 14.6018 8.92781M1.39826 8.92775C1.20232 7.53359 1.45278 6.11318 2.11373 4.87012C2.77468 3.62705 3.8122 2.62513 5.07757 2.00797M4.33333 10.3333L8.00013 12L11.6667 10.3333M4.33333 7.66666L8.00013 9.33332L11.6667 7.66666L8.00013 3.33332L4.33333 7.66666Z" stroke="#75E0A7" stroke-width="1.33333" stroke-linecap="round" stroke-linejoin="round"/>
</svg>
