<svg width="16" height="16" viewBox="0 0 16 16" fill="none" xmlns="http://www.w3.org/2000/svg">
<path d="M11.9186 13.3934C10.7796 14.221 9.40784 14.6667 7.99998 14.6667C6.59212 14.6667 5.2204 14.221 4.08142 13.3934M10.9225 2.00803C12.1878 2.6252 13.2253 3.62711 13.8863 4.87018C14.5473 6.11325 14.7977 7.53365 14.6018 8.92781M1.39826 8.92775C1.20232 7.53359 1.45278 6.11318 2.11373 4.87012C2.77468 3.62705 3.8122 2.62513 5.07757 2.00797M11.6666 7.99999C11.6666 10.025 10.025 11.6667 7.99998 11.6667C5.97494 11.6667 4.33332 10.025 4.33332 7.99999C4.33332 5.97495 5.97494 4.33332 7.99998 4.33332C10.025 4.33332 11.6666 5.97495 11.6666 7.99999Z" stroke="#7CD4FD" stroke-width="1.33333" stroke-linecap="round" stroke-linejoin="round"/>
</svg>
