<svg width="16" height="16" viewBox="0 0 16 16" fill="none" xmlns="http://www.w3.org/2000/svg">
<path d="M11.9186 13.3934C10.7796 14.221 9.40784 14.6667 7.99998 14.6667C6.59212 14.6667 5.2204 14.221 4.08142 13.3934M10.9225 2.00803C12.1878 2.6252 13.2253 3.62711 13.8863 4.87018C14.5473 6.11325 14.7977 7.53365 14.6018 8.92781M1.39826 8.92775C1.20232 7.53359 1.45278 6.11318 2.11373 4.87012C2.77468 3.62705 3.8122 2.62513 5.07757 2.00797M7.62286 4.37711L4.37711 7.62287C4.2451 7.75487 4.1791 7.82088 4.15437 7.89699C4.13262 7.96393 4.13262 8.03605 4.15437 8.103C4.1791 8.17911 4.2451 8.24511 4.37711 8.37711L7.62286 11.6229C7.75486 11.7549 7.82087 11.8209 7.89698 11.8456C7.96393 11.8674 8.03604 11.8674 8.10299 11.8456C8.1791 11.8209 8.2451 11.7549 8.37711 11.6229L11.6229 8.37711C11.7549 8.24511 11.8209 8.17911 11.8456 8.103C11.8673 8.03605 11.8673 7.96393 11.8456 7.89699C11.8209 7.82088 11.7549 7.75487 11.6229 7.62287L8.37711 4.37711C8.2451 4.24511 8.1791 4.17911 8.10299 4.15438C8.03604 4.13262 7.96393 4.13262 7.89698 4.15438C7.82087 4.17911 7.75486 4.24511 7.62286 4.37711Z" stroke="#FDA29B" stroke-width="1.33333" stroke-linecap="round" stroke-linejoin="round"/>
</svg>
