<svg width="16" height="16" viewBox="0 0 16 16" fill="none" xmlns="http://www.w3.org/2000/svg">
<g clip-path="url(#clip0_47_9269)">
<path d="M10 6.00001H10.0067M6 6.00001H6.00667M14.6667 8.00001C14.6667 11.6819 11.6819 14.6667 8 14.6667C4.3181 14.6667 1.33333 11.6819 1.33333 8.00001C1.33333 4.31811 4.3181 1.33334 8 1.33334C11.6819 1.33334 14.6667 4.31811 14.6667 8.00001ZM10.3333 6.00001C10.3333 6.18411 10.1841 6.33334 10 6.33334C9.8159 6.33334 9.66667 6.18411 9.66667 6.00001C9.66667 5.81592 9.8159 5.66668 10 5.66668C10.1841 5.66668 10.3333 5.81592 10.3333 6.00001ZM6.33333 6.00001C6.33333 6.18411 6.18409 6.33334 6 6.33334C5.8159 6.33334 5.66667 6.18411 5.66667 6.00001C5.66667 5.81592 5.8159 5.66668 6 5.66668C6.18409 5.66668 6.33333 5.81592 6.33333 6.00001ZM8 11.6667C9.667 11.6667 11 10.4447 11 9.33334H5C5 10.4447 6.333 11.6667 8 11.6667Z" stroke="#9E77ED" stroke-width="1.33333" stroke-linecap="round" stroke-linejoin="round"/>
</g>
<defs>
<clipPath id="clip0_47_9269">
<rect width="16" height="16" fill="white"/>
</clipPath>
</defs>
</svg>
