<svg width="16" height="16" viewBox="0 0 16 16" fill="none" xmlns="http://www.w3.org/2000/svg">
<path d="M3.33333 6.66667V10.6741C3.33333 10.9134 3.33333 11.0331 3.36977 11.1387C3.40199 11.2321 3.45458 11.3172 3.52372 11.3878C3.60191 11.4676 3.70893 11.5211 3.92297 11.6282L7.52297 13.4282C7.69788 13.5156 7.78534 13.5593 7.87707 13.5765C7.95831 13.5918 8.04168 13.5918 8.12293 13.5765C8.21466 13.5593 8.30212 13.5156 8.47703 13.4282L12.077 11.6282C12.2911 11.5211 12.3981 11.4676 12.4763 11.3878C12.5454 11.3172 12.598 11.2321 12.6302 11.1387C12.6667 11.0331 12.6667 10.9134 12.6667 10.6741V6.66667M1.33333 5.66667L7.76148 2.45259C7.84894 2.40887 7.89267 2.387 7.93853 2.3784C7.97916 2.37078 8.02084 2.37078 8.06147 2.3784C8.10733 2.387 8.15106 2.40887 8.23851 2.45259L14.6667 5.66667L8.23851 8.88075C8.15106 8.92447 8.10733 8.94634 8.06147 8.95494C8.02084 8.96256 7.97916 8.96256 7.93853 8.95494C7.89267 8.94634 7.84894 8.92447 7.76148 8.88075L1.33333 5.66667Z" stroke="#9E77ED" stroke-width="1.33333" stroke-linecap="round" stroke-linejoin="round"/>
</svg>
