<svg width="16" height="16" viewBox="0 0 16 16" fill="none" xmlns="http://www.w3.org/2000/svg">
<path d="M7.53468 14.4099C7.68227 14.496 7.75607 14.5391 7.86022 14.5614C7.94104 14.5787 8.05897 14.5787 8.13979 14.5614C8.24394 14.5391 8.31774 14.496 8.46533 14.4099C9.76403 13.6523 13.3333 11.2723 13.3333 8V4.81173C13.3333 4.27872 13.3333 4.01222 13.2462 3.78313C13.1692 3.58076 13.044 3.40018 12.8816 3.25702C12.6977 3.09495 12.4481 3.00138 11.9491 2.81423L8.37454 1.47378C8.23594 1.4218 8.16664 1.39582 8.09535 1.38552C8.03211 1.37638 7.9679 1.37638 7.90466 1.38552C7.83337 1.39582 7.76407 1.4218 7.62547 1.47378L4.05094 2.81423C3.55187 3.00138 3.30234 3.09495 3.11844 3.25702C2.95599 3.40018 2.83085 3.58076 2.75385 3.78313C2.66667 4.01222 2.66667 4.27872 2.66667 4.81173V8C2.66667 11.2723 6.23598 13.6523 7.53468 14.4099Z" stroke="#9E77ED" stroke-width="1.33333" stroke-linecap="round" stroke-linejoin="round"/>
</svg>
